<?xml version="1.0" encoding="UTF-8"?>
<svg id="Layer_2" data-name="Layer 2" xmlns="http://www.w3.org/2000/svg" viewBox="0 0 335.09 77.42">
  <defs>
    <style>
      .cls-1 {
        fill: #181a35;
      }

      .cls-2 {
        fill: #700c91;
      }
    </style>
  </defs>
  <g id="Layer_1-2" data-name="Layer 1">
    <g>
      <path class="cls-1" d="M197.51,2.49v69.98c0,.88-.72,1.6-1.6,1.6h-13.37c-.88,0-1.6-.72-1.6-1.6V2.49c0-.88.72-1.6,1.6-1.6h13.37c.88,0,1.6.72,1.6,1.6Z"/>
      <path class="cls-1" d="M172.27,32.05v40.59c0,.88-.72,1.6-1.6,1.6h-13.17c-.88,0-1.6-.72-1.6-1.6V24.33c0-1.23,1.34-2,2.4-1.38l13.17,7.72c.49.29.79.81.79,1.38Z"/>
      <path class="cls-1" d="M288.02,22.48h-22.89c-1.71-1.92-4.2-3.14-6.98-3.14s-5.27,1.22-6.98,3.14h-.67c-2.9,0-5.25,2.35-5.25,5.25v1.95c0,2.9,2.35,5.25,5.25,5.25h.67c1.71,1.92,4.2,3.14,6.98,3.14s5.27-1.22,6.98-3.14h22.89c2.9,0,5.25-2.35,5.25-5.25v-1.95c0-2.9-2.35-5.25-5.25-5.25ZM261.26,28.7c0,1.72-1.4,3.12-3.12,3.12s-3.12-1.4-3.12-3.12,1.4-3.12,3.12-3.12,3.12,1.4,3.12,3.12Z"/>
      <path class="cls-1" d="M288.02,41.92h0c-1.7-2.35-4.46-3.89-7.59-3.89s-5.89,1.54-7.59,3.89h-22.35c-2.9,0-5.25,2.35-5.25,5.25v1.95c0,2.9,2.35,5.25,5.25,5.25h23.7c1.66,1.48,3.84,2.39,6.24,2.39s4.58-.91,6.24-2.39h1.35c2.9,0,5.25-2.35,5.25-5.25v-1.95c0-2.9-2.35-5.25-5.25-5.25ZM283.55,47.39c0,1.72-1.4,3.12-3.12,3.12s-3.12-1.4-3.12-3.12,1.4-3.12,3.12-3.12,3.12,1.4,3.12,3.12Z"/>
      <path class="cls-1" d="M288.02,61.83h-14.89c-1.71-1.92-4.2-3.14-6.98-3.14s-5.27,1.22-6.98,3.14h-8.66c-2.9,0-5.25,2.35-5.25,5.25v1.95c0,2.9,2.35,5.25,5.25,5.25h8.66c1.71,1.92,4.2,3.14,6.98,3.14s5.27-1.22,6.98-3.14h14.89c2.9,0,5.25-2.35,5.25-5.25v-1.95c0-2.9-2.35-5.25-5.25-5.25ZM269.26,68.05c0,1.72-1.4,3.12-3.12,3.12s-3.12-1.4-3.12-3.12,1.4-3.12,3.12-3.12,3.12,1.4,3.12,3.12Z"/>
      <path class="cls-1" d="M145.81.21c-1.15-.14-2.33-.21-3.55-.21-6.51,0-11.59,1.87-15.24,5.62-3.65,3.75-5.47,8.81-5.47,15.19v1.28h-5.91c-.82,0-1.49.67-1.49,1.49v10.33c0,.82.67,1.49,1.49,1.49h4.42c.82,0,1.49.67,1.49,1.49v35.68c0,.82.67,1.49,1.49,1.49h13.69c.82,0,1.49-.67,1.49-1.49v-35.68c0-.82.67-1.49,1.49-1.49h8.95c.82,0,1.49-.67,1.49-1.49v-10.33c0-.82-.67-1.49-1.49-1.49h-10.94v-1.18c0-4.8,1.72-7.2,8-7.2l.08-13.5Z"/>
      <path class="cls-1" d="M234,61.15c-3.7.17-5.13-.56-6.11-1.68-.99-1.12-1.48-2.7-1.48-4.73v-18.34c0-.55.44-.99.99-.99h9.96c.55,0,.99-.44.99-.99v-11.34c0-.55-.44-.99-.99-.99h-9.96c-.55,0-.99-.44-.99-.99v-11.24c0-.55-.44-.99-.99-.99h-14.69c-.55,0-.99.44-.99.99v11.24c0,.55-.44.99-.99.99h-5.42c-.55,0-.99.44-.99.99v11.34c0,.55.44.99.99.99h5.42c.55,0,.99.44.99.99v18.54c0,6.57,1.74,11.56,5.23,14.94,3.48,3.39,8.38,5.08,14.69,5.08,1.43,0,2.79-.11,4.12-.3l.22-13.51Z"/>
      <path class="cls-1" d="M316.57,27.02v-3.74c0-.61-.5-1.11-1.11-1.11h-14.32c-.61,0-1.11.5-1.11,1.11v49.46c0,.73.59,1.32,1.32,1.32h13.9c.73,0,1.32-.59,1.32-1.32v-19.06c0-4.6,2.47-8.9,6.53-11.07,5.62-3.01,12-2.39,12-2.39,0,0,0,0,0,0v-19.5c-12.22,0-17.05,4.46-18.52,6.3Z"/>
      <path class="cls-1" d="M174.56,11.56h0c-.01,2.31-.49,6.93-3.62,11.27-.64,1.05-1.39,1.94-2.26,2.59-.01.01-.02.03-.04.04h0c-.29.21-.6.4-.92.56-1.84.2-.96-2.18-.96-3.54.15-2.02-1.51-2.72-3.33-2.77-11-.71-13.44-15.28-3.24-19.02,6.22-2.35,13.71,1.52,14.25,8.43l.12,2.44Z"/>
    </g>
    <g>
      <path class="cls-2" d="M102.02,56.12c-1.41-1.5-3.93-.51-3.93,1.55v4.12h-28.91c-.53,0-.96-.43-.96-.96v-8.92h21.27c1.1,0,2-.89,2-2v-10.14c0-1.1-.89-2-2-2h-21.27v-8h27.87c1.1,0,2-.89,2-2v-10.14c0-1.1-.89-2-2-2h-36.56c-3.22,0-5.83,2.61-5.83,5.83v45.57c0,3.87,3.14,7.01,7.01,7.01h53.07c1.9,0,2.88-2.26,1.58-3.65l-13.36-14.29Z"/>
      <path class="cls-2" d="M38.22,55.62c3.51-1.72,6.23-4.17,8.18-7.34,1.95-3.17,2.92-6.87,2.92-11.1s-1-8.21-3-11.43c-2-3.23-4.84-5.72-8.51-7.47-3.67-1.75-7.98-2.63-12.94-2.63H5.83c-3.22,0-5.83,2.61-5.83,5.83v52.59h14.61V28.08h9.35c3.51,0,6.15.79,7.93,2.38,1.78,1.59,2.67,3.83,2.67,6.72s-.89,5.05-2.67,6.63c-1.67,1.49-4.11,2.27-7.3,2.36-.13,0-.25.02-.39.02h-4.92c-.38,0-.69.31-.69.69v10.8c0,.38.31.69.69.69h5.31v.05s-.04.02-.04.03l.04.06,10.22,15.54h15.52l-12.1-18.44Z"/>
    </g>
  </g>
</svg>