<?xml version="1.0" encoding="UTF-8"?>
<svg id="Layer_2" data-name="Layer 2" xmlns="http://www.w3.org/2000/svg" viewBox="0 0 199.38 199.53">
  <defs>
    <style>
      .cls-1 {
        fill: #5d1e79;
      }
    </style>
  </defs>
  <g id="Layer_1-2" data-name="Layer 1">
    <g>
      <path class="cls-1" d="M48.55,132.28c-4.99,0-9.69,1.94-13.21,5.47-3.53,3.53-5.47,8.22-5.47,13.21,0,10.3,8.38,18.69,18.69,18.69,10.3,0,18.69-8.38,18.69-18.69,0-5.15-2.1-9.82-5.48-13.21-3.38-3.38-8.06-5.48-13.21-5.48Z"/>
      <path class="cls-1" d="M151.97,66.97c4.99,0,9.69-1.94,13.21-5.47,3.53-3.53,5.47-8.22,5.47-13.21s-2.1-9.82-5.48-13.21c-3.38-3.38-8.06-5.48-13.21-5.48-10.3,0-18.69,8.38-18.69,18.69,0,10.31,8.38,18.69,18.69,18.69Z"/>
      <path class="cls-1" d="M170.46,106.67c-1.79-.83-3.75-1.38-5.01-2.9l-.4-.56c-2.08-3.18-.43-7.99,3.06-9.33C217.55,74.46,205.58.84,150.8,0c-19.08-.12-37.14,12.08-44.38,29.65-1.5,4.75-6.24,6.93-10.23,4.38-.92-.63-1.66-1.49-2.18-2.5-2.76-6.42-6.45-12.72-11.51-17.56C51.88-16.72-1.89,6.74.05,50.27c.49,19.18,13.28,36.59,31.01,43.44,4.51,1.59,5.76,7.58,2.29,10.67-52.27,20.64-39.84,94.98,16.77,95.1,19.63-.37,36.96-13.69,44.03-31.68,2.16-4.07,8.46-4.15,10.83-.64,11.68,30.33,48.86,42.6,75.23,22.62,29.88-22.02,23.46-69.24-9.75-83.1ZM48.55,178.98c-7.72,0-14.73-3.14-19.8-8.21-5.07-5.07-8.21-12.08-8.21-19.8,0-7.48,2.91-14.52,8.2-19.81,5.29-5.29,12.33-8.2,19.81-8.2,15.45,0,28.01,12.57,28.01,28.01,0,15.45-12.57,28.01-28.01,28.01ZM106.16,132.84c-.58,1.53-1.44,3.75-2.51,4.5-2.31,1.62-5.16,1.53-7.47.21-1.53-1.08-2.09-2.96-2.8-4.71-4.9-12.12-14.59-21.8-26.69-26.71-1.48-.63-2.95-1.02-4.05-2.15l-.4-.53c-.56-.95-.83-2.31-.81-3.69h-.02v-30.61l-12.86-12.86-16.34,16.34c-2.21,2.21-5.8,2.21-8.01,0-2.21-2.21-2.21-5.8,0-8.01l16.34-16.34-16.34-16.34c-2.21-2.21-2.21-5.8,0-8.01,2.21-2.21,5.8-2.21,8.01,0l16.34,16.34,16.34-16.34c2.21-2.21,5.8-2.21,8.01,0,2.21,2.21,2.21,5.8,0,8.01l-16.34,16.34,12.84,12.84h57.7c-2-3.85-3.15-8.22-3.15-12.85,0-15.45,12.57-28.01,28.01-28.01,15.44,0,28.01,12.57,28.01,28.01,0,7.48-2.91,14.52-8.2,19.81-5.29,5.29-12.33,8.2-19.81,8.2-5.04,0-9.76-1.36-13.86-3.7v27.16h0c-.02,1.07-.25,2.15-.64,3.13-.86,1.92-3.03,2.57-5.04,3.42-11.91,4.96-21.41,14.55-26.26,26.53ZM176.32,167.73c2.21,2.21,2.21,5.8,0,8.01-2.21,2.21-5.8,2.21-8.01,0l-16.34-16.34-16.34,16.34c-2.21,2.21-5.8,2.21-8.01,0-2.21-2.21-2.21-5.8,0-8.01l16.34-16.34-16.34-16.34c-2.21-2.21-2.21-5.8,0-8.01,2.21-2.21,5.8-2.21,8.01,0l16.34,16.34,16.34-16.34c2.21-2.21,5.8-2.21,8.01,0,2.21,2.21,2.21,5.8,0,8.01l-16.34,16.34,16.34,16.34Z"/>
    </g>
  </g>
</svg>